<svg xmlns="http://www.w3.org/2000/svg" viewBox="0 0 25.414 19.763"><defs/><path fill="#e6e6e6" d="M12.37 5.126l-8.134 6.7v7.23a.706.706 0 00.706.706l4.944-.016a.706.706 0 00.7-.706v-4.219a.706.706 0 01.706-.706h2.824a.706.706 0 01.706.706v4.219a.706.706 0 00.706.708l4.942.014a.706.706 0 00.706-.706v-7.235l-8.131-6.695a.538.538 0 00-.675 0zm12.849 4.553l-3.688-3.04V.529a.529.529 0 00-.53-.529H18.53a.529.529 0 00-.529.529v3.2l-3.95-3.25a2.118 2.118 0 00-2.691 0L.192 9.68a.529.529 0 00-.071.746l1.125 1.368a.529.529 0 00.746.072L12.37 3.318a.538.538 0 01.675 0l10.378 8.547a.529.529 0 00.746-.071l1.125-1.368a.529.529 0 00-.075-.747z" data-name="Icon awesome-home"/></svg>
